<svg width="24" height="25" viewBox="0 0 24 25" fill="none" xmlns="http://www.w3.org/2000/svg">
<path d="M14.25 4.95784C15.5114 5.29002 16.6621 5.95105 17.5844 6.87341C18.5068 7.79578 19.1678 8.94643 19.5 10.2078M13.5 7.95784C15.0488 8.37222 16.0856 9.40909 16.5 10.9578M14.6616 14.8335C14.7654 14.7644 14.8849 14.7222 15.0091 14.7109C15.1334 14.6997 15.2585 14.7195 15.3731 14.7688L19.7944 16.7497C19.9434 16.8134 20.0677 16.9236 20.1489 17.0639C20.23 17.2042 20.2635 17.3669 20.2444 17.5278C20.0987 18.6163 19.5627 19.6149 18.736 20.3378C17.9093 21.0606 16.8482 21.4587 15.75 21.4578C12.3685 21.4578 9.12548 20.1145 6.73439 17.7235C4.3433 15.3324 3 12.0894 3 8.70784C2.99916 7.60966 3.3972 6.54854 4.12009 5.72184C4.84298 4.89514 5.84152 4.35912 6.93 4.21347C7.09091 4.19435 7.25368 4.22786 7.39395 4.30898C7.53422 4.3901 7.64444 4.51447 7.70813 4.66347L9.68906 9.08847C9.73773 9.20212 9.75756 9.32604 9.74676 9.4492C9.73596 9.57237 9.69489 9.69095 9.62719 9.7944L7.62375 12.1766C7.55269 12.2838 7.51066 12.4077 7.50179 12.536C7.49291 12.6643 7.51749 12.7928 7.57313 12.9088C8.34844 14.496 9.98906 16.1169 11.5809 16.8847C11.6975 16.9401 11.8266 16.9641 11.9553 16.9544C12.084 16.9447 12.208 16.9016 12.315 16.8294L14.6616 14.8335Z" stroke="white" stroke-width="1.6" stroke-linecap="round" stroke-linejoin="round"/>
</svg>
