<svg width="40" height="41" viewBox="0 0 40 41" fill="none" xmlns="http://www.w3.org/2000/svg">
<g clip-path="url(#clip0_74_13049)">
<path d="M11.25 16.3066C11.25 14.9806 11.7768 13.7088 12.7145 12.7711C13.6521 11.8334 14.9239 11.3066 16.25 11.3066L18.75 16.3066L16.825 19.1926C17.5886 21.0172 19.0395 22.468 20.8641 23.2316L23.75 21.3066L28.75 23.8066C28.75 25.1327 28.2232 26.4045 27.2855 27.3422C26.3479 28.2799 25.0761 28.8066 23.75 28.8066C20.4348 28.8066 17.2554 27.4897 14.9112 25.1455C12.567 22.8013 11.25 19.6218 11.25 16.3066Z" stroke="#0D968B" stroke-width="2" stroke-linecap="round" stroke-linejoin="round"/>
<path d="M12.4891 33.0425C15.6399 34.8661 19.3464 35.4816 22.9175 34.7742C26.4886 34.0668 29.6806 32.0848 31.8983 29.1978C34.116 26.3108 35.2081 22.7157 34.971 19.083C34.7338 15.4502 33.1836 12.0277 30.6094 9.45348C28.0352 6.87926 24.6127 5.32908 20.9799 5.09193C17.3472 4.85479 13.7521 5.94689 10.8651 8.1646C7.97809 10.3823 5.99612 13.5743 5.28872 17.1454C4.58132 20.7165 5.19678 24.423 7.02035 27.5738L5.06567 33.4097C4.99222 33.63 4.98156 33.8663 5.03488 34.0923C5.08821 34.3182 5.20341 34.5249 5.36758 34.6891C5.53175 34.8532 5.7384 34.9684 5.96436 35.0218C6.19032 35.0751 6.42667 35.0644 6.64692 34.991L12.4891 33.0425Z" stroke="#0D968B" stroke-width="2" stroke-linecap="round" stroke-linejoin="round"/>
</g>
<defs>
<clipPath id="clip0_74_13049">
<rect width="40" height="40" fill="white" transform="translate(0 0.0566406)"/>
</clipPath>
</defs>
</svg>
