<svg width="40" height="41" viewBox="0 0 40 41" fill="none" xmlns="http://www.w3.org/2000/svg">
<g clip-path="url(#clip0_74_13056)">
<path d="M20 35.0566C28.2843 35.0566 35 28.3409 35 20.0566C35 11.7724 28.2843 5.05664 20 5.05664C11.7157 5.05664 5 11.7724 5 20.0566C5 28.3409 11.7157 35.0566 20 35.0566Z" stroke="#0D968B" stroke-width="2" stroke-linecap="round" stroke-linejoin="round"/>
<path d="M14.375 18.8066C15.4105 18.8066 16.25 17.9672 16.25 16.9316C16.25 15.8961 15.4105 15.0566 14.375 15.0566C13.3395 15.0566 12.5 15.8961 12.5 16.9316C12.5 17.9672 13.3395 18.8066 14.375 18.8066Z" fill="#0D968B"/>
<path d="M25.625 18.8066C26.6605 18.8066 27.5 17.9672 27.5 16.9316C27.5 15.8961 26.6605 15.0566 25.625 15.0566C24.5895 15.0566 23.75 15.8961 23.75 16.9316C23.75 17.9672 24.5895 18.8066 25.625 18.8066Z" fill="#0D968B"/>
<path d="M26.25 23.8066C24.9531 26.0488 22.7766 27.5566 20 27.5566C17.2234 27.5566 15.0469 26.0488 13.75 23.8066" stroke="#0D968B" stroke-width="2" stroke-linecap="round" stroke-linejoin="round"/>
</g>
<defs>
<clipPath id="clip0_74_13056">
<rect width="40" height="40" fill="white" transform="translate(0 0.0566406)"/>
</clipPath>
</defs>
</svg>
