<svg width="40" height="41" viewBox="0 0 40 41" fill="none" xmlns="http://www.w3.org/2000/svg">
<g clip-path="url(#clip0_74_12842)">
<path d="M21.5 12.7783C21.5 13.6067 20.8284 14.2783 20 14.2783C19.1716 14.2783 18.5 13.6067 18.5 12.7783C18.5 11.9499 19.1716 11.2783 20 11.2783C20.8284 11.2783 21.5 11.9499 21.5 12.7783Z" fill="#0D968B" stroke="#0D968B" stroke-width="2"/>
<path d="M28.75 12.7783C28.75 21.5283 20 26.5283 20 26.5283C20 26.5283 11.25 21.5283 11.25 12.7783C11.25 10.4577 12.1719 8.23208 13.8128 6.59114C15.4538 4.95019 17.6794 4.02832 20 4.02832C22.3206 4.02832 24.5462 4.95019 26.1872 6.59114C27.8281 8.23208 28.75 10.4577 28.75 12.7783Z" stroke="#0D968B" stroke-width="2" stroke-linecap="round" stroke-linejoin="round"/>
<path d="M31.25 24.519C34.3312 25.6565 36.25 27.2565 36.25 29.0284C36.25 32.48 28.975 35.2784 20 35.2784C11.025 35.2784 3.75 32.48 3.75 29.0284C3.75 27.2565 5.66875 25.6565 8.75 24.519" stroke="#0D968B" stroke-width="2" stroke-linecap="round" stroke-linejoin="round"/>
</g>
<defs>
<clipPath id="clip0_74_12842">
<rect width="40" height="40" fill="white" transform="translate(0 0.27832)"/>
</clipPath>
</defs>
</svg>
