<svg width="40" height="41" viewBox="0 0 40 41" fill="none" xmlns="http://www.w3.org/2000/svg">
<g clip-path="url(#clip0_74_13033)">
<path d="M20 25.0566C23.4518 25.0566 26.25 22.2584 26.25 18.8066C26.25 15.3549 23.4518 12.5566 20 12.5566C16.5482 12.5566 13.75 15.3549 13.75 18.8066C13.75 22.2584 16.5482 25.0566 20 25.0566Z" stroke="#0D968B" stroke-width="2" stroke-linecap="round" stroke-linejoin="round"/>
<path d="M9.96875 31.208C10.9092 29.3555 12.3443 27.7997 14.1149 26.7129C15.8855 25.6261 17.9225 25.0508 20 25.0508C22.0775 25.0508 24.1145 25.6261 25.8851 26.7129C27.6557 27.7997 29.0908 29.3555 30.0312 31.208" stroke="#0D968B" stroke-width="2" stroke-linecap="round" stroke-linejoin="round"/>
<path d="M34.7922 17.5567C35.3195 20.6901 34.8374 23.9099 33.4154 26.7514C31.9935 29.5929 29.7052 31.9089 26.8811 33.3651C24.057 34.8213 20.8432 35.3422 17.7037 34.8528C14.5642 34.3633 11.6616 32.8887 9.41478 30.6419C7.168 28.3951 5.69342 25.4925 5.20394 22.353C4.71447 19.2135 5.23543 15.9997 6.6916 13.1756C8.14778 10.3515 10.4638 8.06322 13.3053 6.64125C16.1468 5.21928 19.3666 4.73717 22.5 5.26452" stroke="#0D968B" stroke-width="2" stroke-linecap="round" stroke-linejoin="round"/>
<path d="M28.75 8.80664L31.25 11.3066L36.25 6.30664" stroke="#0D968B" stroke-width="2" stroke-linecap="round" stroke-linejoin="round"/>
</g>
<defs>
<clipPath id="clip0_74_13033">
<rect width="40" height="40" fill="white" transform="translate(0 0.0566406)"/>
</clipPath>
</defs>
</svg>
