<svg width="32" height="32" viewBox="0 0 32 32" fill="none" xmlns="http://www.w3.org/2000/svg">
<path d="M29.2089 12.867C28.6911 12.3258 28.1554 11.7682 27.9535 11.2778C27.7667 10.8287 27.7557 10.0842 27.7447 9.36311C27.7241 8.02253 27.7021 6.50338 26.6459 5.44713C25.5896 4.39087 24.0705 4.36889 22.7299 4.34829C22.0088 4.3373 21.2643 4.32631 20.8152 4.13951C20.3262 3.9376 19.7672 3.40192 19.226 2.88409C18.2782 1.97343 17.2014 0.941895 15.7674 0.941895C14.3334 0.941895 13.2579 1.97343 12.3088 2.88409C11.7676 3.40192 11.21 3.9376 10.7196 4.13951C10.2732 4.32631 9.52599 4.3373 8.80488 4.34829C7.4643 4.36889 5.94516 4.39087 4.8889 5.44713C3.83264 6.50338 3.81753 8.02253 3.79006 9.36311C3.77907 10.0842 3.76809 10.8287 3.58128 11.2778C3.37937 11.7668 2.84369 12.3258 2.32586 12.867C1.4152 13.8148 0.383667 14.8916 0.383667 16.3256C0.383667 17.7596 1.4152 18.8351 2.32586 19.7842C2.84369 20.3254 3.37937 20.883 3.58128 21.3734C3.76809 21.8225 3.77907 22.567 3.79006 23.2881C3.81067 24.6287 3.83264 26.1478 4.8889 27.2041C5.94516 28.2604 7.4643 28.2823 8.80488 28.3029C9.52599 28.3139 10.2705 28.3249 10.7196 28.5117C11.2086 28.7136 11.7676 29.2493 12.3088 29.7671C13.2565 30.6778 14.3334 31.7093 15.7674 31.7093C17.2014 31.7093 18.2769 30.6778 19.226 29.7671C19.7672 29.2493 20.3248 28.7136 20.8152 28.5117C21.2643 28.3249 22.0088 28.3139 22.7299 28.3029C24.0705 28.2823 25.5896 28.2604 26.6459 27.2041C27.7021 26.1478 27.7241 24.6287 27.7447 23.2881C27.7557 22.567 27.7667 21.8225 27.9535 21.3734C28.1554 20.8844 28.6911 20.3254 29.2089 19.7842C30.1196 18.8365 31.1511 17.7596 31.1511 16.3256C31.1511 14.8916 30.1196 13.8161 29.2089 12.867ZM22.039 13.8065L14.3471 21.4984C14.2451 21.6006 14.1239 21.6816 13.9905 21.7369C13.8571 21.7922 13.7141 21.8207 13.5697 21.8207C13.4253 21.8207 13.2823 21.7922 13.1489 21.7369C13.0155 21.6816 12.8943 21.6006 12.7923 21.4984L9.49577 18.2019C9.28959 17.9957 9.17375 17.716 9.17375 17.4245C9.17375 17.1329 9.28959 16.8532 9.49577 16.647C9.70196 16.4408 9.98161 16.325 10.2732 16.325C10.5648 16.325 10.8444 16.4408 11.0506 16.647L13.5697 19.1675L20.4841 12.2517C20.5862 12.1496 20.7074 12.0686 20.8408 12.0133C20.9742 11.9581 21.1172 11.9297 21.2616 11.9297C21.406 11.9297 21.5489 11.9581 21.6823 12.0133C21.8157 12.0686 21.9369 12.1496 22.039 12.2517C22.1411 12.3538 22.2221 12.475 22.2773 12.6084C22.3326 12.7418 22.361 12.8847 22.361 13.0291C22.361 13.1735 22.3326 13.3165 22.2773 13.4498C22.2221 13.5832 22.1411 13.7044 22.039 13.8065Z" fill="white"/>
</svg>
