<svg width="40" height="41" viewBox="0 0 40 41" fill="none" xmlns="http://www.w3.org/2000/svg">
<g clip-path="url(#clip0_74_12850)">
<path d="M32.5 6.52832H12.5C11.8096 6.52832 11.25 7.08796 11.25 7.77832V27.7783C11.25 28.4687 11.8096 29.0283 12.5 29.0283H32.5C33.1904 29.0283 33.75 28.4687 33.75 27.7783V7.77832C33.75 7.08796 33.1904 6.52832 32.5 6.52832Z" stroke="#0D968B" stroke-width="2" stroke-linecap="round" stroke-linejoin="round"/>
<path d="M18.75 16.5283C20.1307 16.5283 21.25 15.409 21.25 14.0283C21.25 12.6476 20.1307 11.5283 18.75 11.5283C17.3693 11.5283 16.25 12.6476 16.25 14.0283C16.25 15.409 17.3693 16.5283 18.75 16.5283Z" stroke="#0D968B" stroke-width="2" stroke-linecap="round" stroke-linejoin="round"/>
<path d="M28.75 29.0283V32.7783C28.75 33.1098 28.6183 33.4278 28.3839 33.6622C28.1495 33.8966 27.8315 34.0283 27.5 34.0283H7.5C7.16848 34.0283 6.85054 33.8966 6.61612 33.6622C6.3817 33.4278 6.25 33.1098 6.25 32.7783V12.7783C6.25 12.4468 6.3817 12.1289 6.61612 11.8944C6.85054 11.66 7.16848 11.5283 7.5 11.5283H11.25" stroke="#0D968B" stroke-width="2" stroke-linecap="round" stroke-linejoin="round"/>
<path d="M15.1078 29.0283L27.2406 16.894C27.3567 16.7777 27.4946 16.6855 27.6463 16.6226C27.7981 16.5597 27.9607 16.5273 28.125 16.5273C28.2893 16.5273 28.4519 16.5597 28.6037 16.6226C28.7554 16.6855 28.8933 16.7777 29.0094 16.894L33.75 21.6361" stroke="#0D968B" stroke-width="2" stroke-linecap="round" stroke-linejoin="round"/>
</g>
<defs>
<clipPath id="clip0_74_12850">
<rect width="40" height="40" fill="white" transform="translate(0 0.27832)"/>
</clipPath>
</defs>
</svg>
