<svg width="40" height="41" viewBox="0 0 40 41" fill="none" xmlns="http://www.w3.org/2000/svg">
<g clip-path="url(#clip0_74_12866)">
<path d="M11.25 16.5283C11.25 15.2022 11.7768 13.9305 12.7145 12.9928C13.6521 12.0551 14.9239 11.5283 16.25 11.5283L18.75 16.5283L16.825 19.4143C17.5886 21.2389 19.0395 22.6897 20.8641 23.4533L23.75 21.5283L28.75 24.0283C28.75 25.3544 28.2232 26.6262 27.2855 27.5639C26.3479 28.5015 25.0761 29.0283 23.75 29.0283C20.4348 29.0283 17.2554 27.7114 14.9112 25.3672C12.567 23.023 11.25 19.8435 11.25 16.5283Z" stroke="#0D968B" stroke-width="2" stroke-linecap="round" stroke-linejoin="round"/>
<path d="M12.4891 33.2642C15.6399 35.0878 19.3464 35.7032 22.9175 34.9958C26.4886 34.2885 29.6806 32.3065 31.8983 29.4195C34.116 26.5324 35.2081 22.9374 34.9709 19.3047C34.7338 15.6719 33.1836 12.2494 30.6094 9.67516C28.0352 7.10094 24.6126 5.55076 20.9799 5.31361C17.3471 5.07647 13.7521 6.16857 10.8651 8.38628C7.97807 10.604 5.9961 13.796 5.28871 17.367C4.58131 20.9381 5.19677 24.6446 7.02034 27.7955L5.06565 33.6314C4.9922 33.8516 4.98154 34.088 5.03487 34.314C5.08819 34.5399 5.2034 34.7466 5.36757 34.9107C5.53174 35.0749 5.73838 35.1901 5.96434 35.2434C6.19031 35.2968 6.42666 35.2861 6.6469 35.2127L12.4891 33.2642Z" stroke="#0D968B" stroke-width="2" stroke-linecap="round" stroke-linejoin="round"/>
</g>
<defs>
<clipPath id="clip0_74_12866">
<rect width="40" height="40" fill="white" transform="translate(0 0.27832)"/>
</clipPath>
</defs>
</svg>
