<svg width="48" height="48" viewBox="0 0 48 48" fill="none" xmlns="http://www.w3.org/2000/svg">
<g clip-path="url(#clip0_75_68)">
<path d="M28.5 8.99993C31.0228 9.66428 33.3241 10.9863 35.1689 12.8311C37.0136 14.6758 38.3356 16.9771 39 19.4999M27 14.9999C30.0975 15.8287 32.1712 17.9024 33 20.9999M29.3231 28.7512C29.5309 28.613 29.7698 28.5288 30.0183 28.5062C30.2668 28.4836 30.517 28.5233 30.7463 28.6218L39.5888 32.5837C39.8867 32.7111 40.1355 32.9315 40.2977 33.2121C40.46 33.4926 40.527 33.8181 40.4888 34.14C40.1975 36.3169 39.1254 38.314 37.472 39.7598C35.8186 41.2056 33.6964 42.0016 31.5 42C24.737 42 18.251 39.3134 13.4688 34.5312C8.6866 29.749 6 23.263 6 16.5C5.99832 14.3036 6.7944 12.1814 8.24018 10.528C9.68596 8.87455 11.683 7.80251 13.86 7.51121C14.1818 7.47298 14.5074 7.54 14.7879 7.70224C15.0684 7.86448 15.2889 8.11321 15.4163 8.41121L19.3781 17.2612C19.4755 17.4885 19.5151 17.7364 19.4935 17.9827C19.4719 18.229 19.3898 18.4662 19.2544 18.6731L15.2475 23.4375C15.1054 23.6519 15.0213 23.8996 15.0036 24.1563C14.9858 24.413 15.035 24.6698 15.1463 24.9018C16.6969 28.0762 19.9781 31.3181 23.1619 32.8537C23.3951 32.9645 23.6532 33.0125 23.9106 32.9931C24.1681 32.9737 24.416 32.8876 24.63 32.7431L29.3231 28.7512Z" stroke="#0D968B" stroke-width="3" stroke-linecap="round" stroke-linejoin="round"/>
</g>
<defs>
<clipPath id="clip0_75_68">
<rect width="48" height="48" fill="white"/>
</clipPath>
</defs>
</svg>
