<svg width="41" height="41" viewBox="0 0 41 41" fill="none" xmlns="http://www.w3.org/2000/svg">
<g clip-path="url(#clip0_74_12636)">
<path d="M39.1166 9.60937C38.9321 9.49425 38.7214 9.42797 38.5042 9.41676C38.2871 9.40555 38.0707 9.44979 37.8754 9.54531C30.9998 12.9086 26.0895 11.3327 20.8988 9.67023C15.4391 7.93253 9.80156 6.13078 2.00035 9.93929C1.7849 10.0445 1.60329 10.208 1.47617 10.4113C1.34905 10.6146 1.28152 10.8495 1.28125 11.0892V30.2968C1.28122 30.5141 1.3365 30.728 1.44189 30.9181C1.54729 31.1082 1.69932 31.2684 1.88369 31.3836C2.06807 31.4988 2.27871 31.5651 2.4958 31.5764C2.7129 31.5878 2.9293 31.5437 3.12465 31.4483C10.0002 28.085 14.9105 29.6609 20.1092 31.3234C23.1906 32.3083 26.3297 33.3125 29.8787 33.3125C32.6158 33.3125 35.6011 32.7167 38.9932 31.0607C39.2087 30.9555 39.3903 30.792 39.5174 30.5887C39.6445 30.3854 39.7121 30.1505 39.7123 29.9108V10.7032C39.7143 10.4853 39.6606 10.2704 39.5563 10.079C39.4521 9.88762 39.3007 9.72597 39.1166 9.60937ZM7.6875 24.3437C7.6875 24.6836 7.55251 25.0094 7.31223 25.2497C7.07195 25.49 6.74606 25.625 6.40625 25.625C6.06644 25.625 5.74055 25.49 5.50027 25.2497C5.25999 25.0094 5.125 24.6836 5.125 24.3437V14.0937C5.125 13.7539 5.25999 13.428 5.50027 13.1878C5.74055 12.9475 6.06644 12.8125 6.40625 12.8125C6.74606 12.8125 7.07195 12.9475 7.31223 13.1878C7.55251 13.428 7.6875 13.7539 7.6875 14.0937V24.3437ZM20.5 25.625C19.4864 25.625 18.4955 25.3244 17.6527 24.7613C16.8099 24.1981 16.153 23.3977 15.7651 22.4612C15.3772 21.5248 15.2757 20.4943 15.4735 19.5002C15.6712 18.506 16.1593 17.5928 16.8761 16.8761C17.5928 16.1593 18.506 15.6712 19.5002 15.4735C20.4943 15.2757 21.5248 15.3772 22.4613 15.7651C23.3977 16.153 24.1981 16.8099 24.7613 17.6527C25.3244 18.4955 25.625 19.4864 25.625 20.5C25.625 21.8592 25.085 23.1628 24.1239 24.1239C23.1628 25.085 21.8592 25.625 20.5 25.625ZM35.875 26.9062C35.875 27.2461 35.74 27.5719 35.4997 27.8122C35.2594 28.0525 34.9336 28.1875 34.5938 28.1875C34.2539 28.1875 33.9281 28.0525 33.6878 27.8122C33.4475 27.5719 33.3125 27.2461 33.3125 26.9062V16.6562C33.3125 16.3164 33.4475 15.9905 33.6878 15.7503C33.9281 15.51 34.2539 15.375 34.5938 15.375C34.9336 15.375 35.2594 15.51 35.4997 15.7503C35.74 15.9905 35.875 16.3164 35.875 16.6562V26.9062Z" fill="white"/>
</g>
<defs>
<clipPath id="clip0_74_12636">
<rect width="41" height="41" fill="white"/>
</clipPath>
</defs>
</svg>
