<svg width="36" height="36" viewBox="0 0 36 36" fill="none" xmlns="http://www.w3.org/2000/svg">
<g clip-path="url(#clip0_75_134)">
<path d="M18 18V31.5M18 31.5C20.9837 31.5 23.8452 30.3147 25.955 28.205C28.0647 26.0952 29.25 23.2337 29.25 20.25V15.75C29.25 12.7663 28.0647 9.90483 25.955 7.79505C23.8452 5.68526 20.9837 4.5 18 4.5C15.0163 4.5 12.1548 5.68526 10.045 7.79505C7.93526 9.90483 6.75 12.7663 6.75 15.75V20.25C6.75 23.2337 7.93526 26.0952 10.045 28.205C12.1548 30.3147 15.0163 31.5 18 31.5ZM32.625 25.875L28.5722 24.1045M32.625 10.125L28.5722 11.8955M3.375 10.125L7.42781 11.8955M3.375 25.875L7.42781 24.1045M2.25 18H33.75M22.625 12.9375C22.625 13.3724 22.2724 13.725 21.8375 13.725C21.4026 13.725 21.05 13.3724 21.05 12.9375C21.05 12.5026 21.4026 12.15 21.8375 12.15C22.2724 12.15 22.625 12.5026 22.625 12.9375ZM14.95 12.9375C14.95 13.3724 14.5974 13.725 14.1625 13.725C13.7276 13.725 13.375 13.3724 13.375 12.9375C13.375 12.5026 13.7276 12.15 14.1625 12.15C14.5974 12.15 14.95 12.5026 14.95 12.9375Z" stroke="#0D968B" stroke-width="2" stroke-linecap="round" stroke-linejoin="round"/>
</g>
<defs>
<clipPath id="clip0_75_134">
<rect width="36" height="36" fill="white"/>
</clipPath>
</defs>
</svg>
