<svg width="36" height="36" viewBox="0 0 36 36" fill="none" xmlns="http://www.w3.org/2000/svg">
<g clip-path="url(#clip0_75_94)">
<path d="M18.6019 13.0191L21.2204 10.4541C21.4299 10.2447 21.7135 10.1264 22.0097 10.1248C22.3058 10.1232 22.5907 10.2385 22.8024 10.4457L28.0688 15.421C28.2798 15.6318 28.5658 15.7502 28.864 15.7502C29.1623 15.7502 29.4483 15.6318 29.6593 15.421L30.1824 14.8978C31.0261 14.054 31.5001 12.9095 31.5001 11.7162C31.5001 10.5229 31.0261 9.37845 30.1824 8.53456L23.8543 2.57909C23.7498 2.47449 23.6257 2.39152 23.4891 2.3349C23.3526 2.27829 23.2062 2.24915 23.0583 2.24915C22.9105 2.24915 22.7641 2.27829 22.6275 2.3349C22.491 2.39152 22.3669 2.47449 22.2624 2.57909L15.2044 9.58925M11.8126 12.9544L8.20412 16.546C7.9933 16.7569 7.87488 17.043 7.87488 17.3412C7.87488 17.6394 7.9933 17.9255 8.20412 18.1364L9.98443 19.921C10.1954 20.1318 10.4814 20.2502 10.7797 20.2502C11.0779 20.2502 11.3639 20.1318 11.5749 19.921L15.1876 16.3688M17.671 20.4835C17.7756 20.379 17.8586 20.2549 17.9152 20.1183C17.9718 19.9818 18.0009 19.8354 18.0009 19.6875C18.0009 19.5397 17.9718 19.3933 17.9152 19.2567C17.8586 19.1201 17.7756 18.9961 17.671 18.8916L10.8282 11.9532C10.3816 11.5051 10.1309 10.8983 10.1309 10.2657C10.1309 9.63305 10.3816 9.02624 10.8282 8.57815C11.2763 8.13161 11.8831 7.88088 12.5157 7.88088C13.1483 7.88088 13.7551 8.13161 14.2032 8.57815L24.4252 18.8958C24.5298 19.0003 24.6128 19.1244 24.6694 19.2609C24.726 19.3975 24.7552 19.5439 24.7552 19.6917C24.7552 19.8396 24.726 19.986 24.6694 20.1226C24.6128 20.2591 24.5298 20.3832 24.4252 20.4877L11.9532 33.0469C11.5051 33.4934 10.8983 33.7442 10.2657 33.7442C9.63309 33.7442 9.02627 33.4934 8.57819 33.0469C8.13164 32.5988 7.88091 31.992 7.88091 31.3594C7.88091 30.7268 8.13164 30.12 8.57819 29.6719L17.671 20.4835Z" stroke="#0D968B" stroke-width="2" stroke-linecap="round" stroke-linejoin="round"/>
</g>
<defs>
<clipPath id="clip0_75_94">
<rect width="36" height="36" fill="white"/>
</clipPath>
</defs>
</svg>
