<svg width="36" height="36" viewBox="0 0 36 36" fill="none" xmlns="http://www.w3.org/2000/svg">
<g clip-path="url(#clip0_75_239)">
<path d="M10.125 10.125H28.125C28.125 8.33479 27.4138 6.6179 26.148 5.35203C24.8821 4.08616 23.1652 3.375 21.375 3.375H11.25C10.9516 3.375 10.6655 3.49353 10.4545 3.7045C10.2435 3.91548 10.125 4.20163 10.125 4.5V11.25C10.125 12.4435 9.65089 13.5881 8.80698 14.432C7.96307 15.2759 6.81847 15.75 5.625 15.75M22.5 10.125C26.176 16.0063 28.1251 22.8024 28.125 29.738V31.5C28.125 31.7984 28.0065 32.0845 27.7955 32.2955C27.5845 32.5065 27.2984 32.625 27 32.625H12.375C12.0766 32.625 11.7905 32.5065 11.5795 32.2955C11.3685 32.0845 11.25 31.7984 11.25 31.5V23.5378C11.2496 22.8628 11.401 22.1963 11.6931 21.5877C11.9853 20.9791 12.4105 20.4441 12.9375 20.0222L15.1875 18.225C15.7145 17.8031 16.1397 17.268 16.4319 16.6595C16.724 16.0509 16.8754 15.3844 16.875 14.7094V10.125" stroke="#0D968B" stroke-width="2" stroke-linecap="round" stroke-linejoin="round"/>
</g>
<defs>
<clipPath id="clip0_75_239">
<rect width="36" height="36" fill="white"/>
</clipPath>
</defs>
</svg>
