<svg width="36" height="36" viewBox="0 0 36 36" fill="none" xmlns="http://www.w3.org/2000/svg">
<g clip-path="url(#clip0_75_36)">
<path d="M5.625 15.75H30.375M25.875 4.5V11.25M7.875 21.375C7.27826 21.375 6.70597 21.1379 6.28401 20.716C5.86205 20.294 5.625 19.7217 5.625 19.125V9C5.625 7.80653 6.09911 6.66193 6.94302 5.81802C7.78693 4.97411 8.93153 4.5 10.125 4.5H30.375V19.125C30.375 19.7217 30.1379 20.294 29.716 20.716C29.294 21.1379 28.7217 21.375 28.125 21.375H21.375C21.2138 21.375 21.0545 21.4096 20.9079 21.4765C20.7613 21.5434 20.6308 21.6411 20.5252 21.7628C20.4195 21.8846 20.3413 22.0276 20.2958 22.1822C20.2503 22.3368 20.2385 22.4994 20.2613 22.6589L21.375 29.25C21.375 30.1451 21.0194 31.0036 20.3865 31.6365C19.7536 32.2694 18.8951 32.625 18 32.625C17.1049 32.625 16.2464 32.2694 15.6135 31.6365C14.9806 31.0036 14.625 30.1451 14.625 29.25L15.7387 22.6589C15.7615 22.4994 15.7497 22.3368 15.7042 22.1822C15.6587 22.0276 15.5805 21.8846 15.4748 21.7628C15.3692 21.6411 15.2387 21.5434 15.0921 21.4765C14.9455 21.4096 14.7862 21.375 14.625 21.375H7.875Z" stroke="#0D968B" stroke-width="2" stroke-linecap="round" stroke-linejoin="round"/>
</g>
<defs>
<clipPath id="clip0_75_36">
<rect width="36" height="36" fill="white"/>
</clipPath>
</defs>
</svg>
